<?xml version="1.0" standalone="no"?>
<!DOCTYPE svg PUBLIC "-//W3C//DTD SVG 20010904//EN"
 "http://www.w3.org/TR/2001/REC-SVG-20010904/DTD/svg10.dtd">
<svg version="1.0" xmlns="http://www.w3.org/2000/svg"
 width="1856.000000pt" height="1856.000000pt" viewBox="0 0 1856.000000 1856.000000"
 preserveAspectRatio="xMidYMid meet">
<metadata>
Created by potrace 1.14, written by Peter Selinger 2001-2017
</metadata>
<g transform="translate(0.000000,1856.000000) scale(0.100000,-0.100000)"
fill="#000000" stroke="none">
<path d="M9860 11058 c0 -502 0 -967 0 -1033 l0 -120 -30 48 c-63 100 -163
188 -290 255 -101 54 -175 78 -365 118 -129 27 -478 26 -655 -2 -81 -12 -236
-56 -317 -90 -49 -19 -94 -36 -100 -36 -7 -1 -13 -5 -13 -10 0 -4 -4 -8 -9 -8
-15 0 -200 -109 -221 -130 -3 -3 -34 -27 -70 -55 -70 -54 -230 -210 -230 -224
0 -5 -4 -11 -9 -13 -29 -11 -163 -210 -236 -352 -73 -140 -150 -366 -169 -491
-4 -22 -8 -47 -11 -55 -39 -136 -40 -625 0 -815 3 -14 7 -37 10 -52 3 -16 8
-39 11 -53 3 -14 8 -35 10 -48 26 -137 204 -543 246 -560 4 -2 8 -8 8 -14 0
-30 179 -242 296 -348 83 -77 316 -235 345 -235 4 0 14 -6 21 -13 6 -6 16 -12
20 -12 5 0 27 -8 51 -19 38 -17 134 -54 147 -56 3 -1 25 -7 50 -14 25 -7 52
-15 60 -16 119 -26 165 -34 220 -41 75 -8 364 -9 430 -1 67 8 155 24 155 27 0
1 7 3 15 5 142 35 341 129 408 193 7 6 17 12 21 12 21 0 175 169 204 225 18
34 18 37 22 -75 6 -154 23 -281 39 -298 12 -12 20 -13 66 -12 8 1 139 1 290 1
151 0 282 0 290 0 8 0 47 0 85 0 39 0 77 0 85 0 8 0 20 0 25 -1 27 -6 96 1 91
8 -3 5 -8 45 -11 88 -3 43 -8 120 -11 169 -4 50 -7 1208 -8 2575 l-1 2485
-482 3 -483 2 0 -912z m-749 -1592 c13 -2 42 -7 64 -11 53 -9 183 -54 220 -76
17 -10 45 -26 63 -35 17 -9 32 -20 32 -25 0 -5 6 -9 13 -9 17 0 162 -150 205
-213 111 -159 171 -397 166 -659 -7 -369 -114 -621 -354 -831 -69 -61 -212
-131 -308 -152 -12 -3 -31 -7 -43 -10 -140 -30 -390 -14 -504 34 -199 83 -335
199 -431 366 -63 110 -104 227 -124 350 -18 119 -20 137 -21 250 -2 228 36
408 121 571 49 93 72 125 151 205 85 87 261 199 312 199 7 0 18 5 25 12 7 7
12 9 12 6 0 -3 21 0 47 8 25 8 83 17 127 20 45 4 82 7 83 8 4 3 120 -3 144 -8z"/>
<path d="M2540 11816 c0 -22 -1 -869 -3 -1881 -1 -1012 -5 -1849 -9 -1860 -3
-11 -11 -40 -18 -65 -18 -70 -42 -132 -67 -172 -13 -21 -23 -41 -23 -45 0 -17
-101 -126 -155 -169 -115 -89 -245 -128 -425 -128 -105 1 -176 11 -251 35
-244 80 -379 237 -439 511 -18 84 -23 178 -23 446 0 144 -4 262 -7 262 -4 0
-83 -14 -176 -31 -93 -17 -182 -33 -199 -35 -77 -13 -139 -24 -155 -29 -8 -2
-31 -6 -50 -9 -19 -3 -48 -8 -65 -11 -16 -3 -66 -12 -110 -20 -44 -8 -93 -17
-110 -20 -16 -3 -46 -8 -65 -11 -19 -3 -37 -8 -39 -10 -13 -12 0 -560 14 -635
3 -13 7 -43 10 -65 6 -55 42 -202 61 -256 9 -24 17 -47 18 -53 2 -5 8 -23 14
-38 7 -16 12 -30 12 -32 0 -7 79 -169 92 -190 11 -16 73 -109 127 -189 32 -47
232 -234 301 -283 131 -91 394 -213 514 -238 12 -2 55 -11 96 -20 154 -34 229
-40 455 -39 110 0 220 3 245 8 90 15 99 16 175 32 128 26 379 130 490 205 194
129 375 306 484 474 14 22 28 42 31 45 20 19 124 224 140 275 7 22 16 45 20
50 4 6 11 24 15 40 5 17 9 35 11 40 19 65 45 168 49 200 3 22 8 51 10 65 3 14
8 50 11 80 7 57 13 3776 6 3797 -3 8 -132 11 -508 11 l-504 -1 0 -41z"/>
<path d="M5428 10376 c-1 -2 -61 -6 -133 -9 -71 -4 -141 -9 -155 -12 -14 -2
-44 -7 -65 -9 -22 -2 -78 -14 -125 -25 -47 -12 -92 -23 -101 -25 -35 -9 -112
-37 -140 -51 -16 -9 -31 -15 -34 -15 -13 2 -137 -66 -214 -117 -200 -133 -374
-328 -480 -539 -45 -88 -96 -236 -106 -304 -2 -14 -6 -40 -9 -57 -6 -34 -2
-38 59 -46 11 -1 26 -6 33 -10 6 -5 12 -6 12 -3 0 2 26 -2 58 -9 77 -18 112
-26 139 -30 11 -2 31 -6 42 -10 12 -3 34 -8 50 -10 15 -2 55 -10 87 -18 32 -8
66 -15 74 -15 8 -1 35 -6 60 -13 25 -6 54 -13 65 -15 41 -6 169 -35 175 -39 4
-2 12 22 18 53 21 109 29 131 69 206 72 136 211 250 355 293 143 42 312 49
463 19 46 -9 151 -49 176 -67 15 -10 30 -19 35 -19 4 0 24 -18 46 -39 21 -22
38 -36 38 -33 0 12 60 -81 76 -118 25 -57 28 -71 28 -172 1 -92 0 -98 -29
-140 -48 -67 -121 -106 -235 -123 -19 -3 -80 -12 -135 -20 -55 -8 -116 -17
-135 -20 -59 -9 -154 -23 -205 -29 -16 -3 -61 -9 -100 -16 -113 -18 -118 -19
-165 -25 -25 -3 -69 -10 -98 -15 -29 -5 -56 -9 -60 -8 -4 1 -34 -4 -67 -11
-33 -8 -67 -15 -75 -16 -8 -2 -15 -4 -15 -5 0 -2 -10 -4 -50 -13 -52 -12 -185
-64 -258 -99 -173 -84 -342 -220 -423 -340 -16 -24 -32 -45 -35 -48 -26 -21
-109 -225 -124 -305 -3 -16 -9 -48 -13 -70 -4 -22 -7 -112 -6 -200 1 -165 11
-225 61 -360 97 -262 357 -518 635 -624 13 -5 26 -9 31 -10 4 0 22 -7 40 -14
33 -14 105 -32 166 -42 19 -3 37 -7 40 -9 9 -6 179 -18 256 -19 73 0 230 11
268 19 12 3 33 7 47 9 154 26 310 90 445 183 100 69 169 134 247 234 34 43 62
77 64 75 1 -1 5 -63 8 -137 3 -74 8 -146 11 -160 2 -13 7 -42 11 -64 7 -51 10
-56 37 -55 12 0 52 -1 89 -2 36 -1 71 2 77 5 6 4 11 2 11 -4 0 -6 4 -9 10 -5
9 5 24 6 152 4 31 -1 61 2 67 6 6 3 11 2 11 -2 0 -5 27 -6 61 -3 33 3 62 3 64
0 4 -7 82 -3 102 4 7 3 13 2 13 -2 0 -4 27 -5 61 -2 33 3 62 3 64 0 2 -3 24
-4 49 -2 25 2 44 8 41 13 -3 4 -8 25 -10 46 -3 21 -7 52 -10 68 -15 91 -18
208 -21 805 -7 1204 -12 1625 -18 1665 -12 73 -15 85 -19 92 -3 5 -8 24 -11
43 -21 134 -123 350 -228 485 -58 74 -180 197 -230 231 -24 16 -49 34 -55 41
-20 18 -233 120 -298 142 -101 33 -178 52 -290 69 -120 19 -147 22 -270 28
-66 3 -125 7 -132 9 -6 2 -13 2 -15 1z m603 -2130 c3 -45 -2 -272 -5 -296 -3
-14 -7 -45 -11 -70 -14 -98 -83 -289 -107 -298 -4 -2 -8 -8 -8 -13 0 -11 -10
-24 -60 -76 -60 -62 -126 -107 -241 -163 -26 -13 -161 -48 -214 -55 -61 -9
-262 -8 -275 0 -6 4 -23 8 -38 11 -98 17 -214 114 -265 221 -28 60 -32 79 -34
169 -4 149 29 242 116 324 46 45 146 101 196 110 3 1 19 6 37 11 47 14 64 18
127 24 31 4 63 8 71 10 16 4 48 10 115 19 22 4 51 8 65 11 34 6 85 14 195 30
28 4 64 9 80 12 17 2 45 6 64 9 19 2 48 7 65 10 17 3 44 7 60 9 15 2 30 6 32
8 12 12 34 1 35 -17z"/>
<path d="M12928 10375 c-1 -1 -57 -5 -123 -9 -130 -6 -158 -9 -280 -32 -121
-23 -128 -24 -150 -31 -11 -4 -24 -8 -30 -9 -5 -1 -44 -14 -85 -29 -41 -15
-81 -27 -87 -27 -7 -1 -13 -5 -13 -10 0 -4 -7 -8 -15 -8 -44 0 -317 -163 -439
-263 -82 -67 -286 -276 -286 -294 0 -2 -13 -18 -30 -36 -16 -18 -30 -37 -30
-44 0 -7 -6 -16 -12 -20 -14 -8 -32 -39 -69 -110 -12 -24 -26 -43 -32 -43 -6
0 -8 -3 -4 -6 3 -3 -7 -29 -22 -58 -66 -123 -164 -432 -153 -478 1 -5 -1 -8
-5 -8 -5 0 -9 -21 -11 -48 -1 -26 -5 -58 -8 -72 -8 -44 -16 -162 -17 -270 -1
-103 10 -310 18 -333 2 -7 6 -28 9 -47 3 -19 8 -46 11 -60 3 -14 8 -39 11 -57
3 -17 13 -61 24 -97 10 -36 16 -66 12 -66 -4 0 -2 -4 3 -8 6 -4 21 -38 34 -77
44 -128 183 -393 212 -403 5 -2 9 -10 9 -18 0 -8 4 -14 8 -14 4 0 15 -13 25
-29 44 -74 221 -253 352 -354 50 -38 97 -72 105 -75 8 -3 24 -13 35 -22 39
-35 271 -145 365 -174 30 -10 62 -20 70 -23 19 -7 30 -11 55 -16 11 -3 38 -10
60 -15 36 -10 72 -17 145 -28 127 -20 493 -27 590 -11 80 13 125 20 145 22 86
11 334 90 426 137 31 15 59 28 63 28 14 0 185 108 261 165 148 110 332 306
443 471 109 163 230 444 249 583 8 56 21 28 47 -100 3 -13 9 -31 26 -74 4 -11
17 -47 30 -80 30 -82 76 -178 122 -254 21 -34 38 -65 38 -67 0 -6 88 -125 133
-179 76 -91 215 -225 302 -290 143 -108 398 -245 500 -268 6 -2 15 -5 20 -9
10 -6 197 -53 250 -62 17 -3 41 -8 54 -11 106 -21 474 -28 606 -11 39 5 80 10
93 10 12 1 22 3 22 6 0 3 8 6 18 6 20 1 79 12 104 20 9 3 26 7 37 9 36 7 204
66 261 92 80 36 163 77 175 86 5 4 48 33 95 64 247 162 470 408 613 673 53
100 109 235 132 320 2 8 11 40 20 70 9 30 18 68 20 84 2 15 6 35 9 45 21 69
37 261 36 426 0 181 -8 271 -31 391 -5 28 -12 64 -15 80 -3 16 -10 47 -16 69
-7 22 -12 43 -14 48 -1 4 -3 9 -4 12 -1 3 -3 8 -4 13 -10 44 -76 215 -87 226
-5 6 -9 18 -9 27 0 10 -3 19 -7 21 -5 2 -19 26 -33 53 -21 43 -42 76 -131 212
-59 88 -242 278 -351 363 -34 27 -70 56 -79 65 -9 8 -21 15 -27 15 -7 0 -12 5
-12 10 0 6 -4 10 -9 10 -6 0 -29 13 -53 28 -92 61 -245 134 -373 178 -65 21
-242 62 -335 76 -137 20 -563 16 -650 -7 -8 -2 -31 -6 -50 -9 -47 -7 -67 -12
-115 -25 -22 -6 -49 -12 -60 -14 -11 -2 -33 -9 -48 -15 -16 -7 -34 -12 -40
-12 -7 -1 -30 -9 -52 -20 -22 -11 -44 -19 -49 -20 -5 0 -43 -16 -85 -36 -42
-20 -78 -35 -80 -34 -2 1 -7 -2 -10 -7 -3 -4 -16 -14 -28 -20 -13 -7 -33 -19
-45 -25 -13 -7 -25 -16 -28 -19 -3 -3 -16 -12 -30 -19 -27 -14 -115 -79 -165
-120 -98 -82 -335 -341 -335 -366 0 -3 -14 -24 -31 -45 -17 -21 -27 -39 -22
-39 4 0 4 -4 -2 -8 -13 -9 -31 -38 -49 -77 -8 -16 -18 -34 -23 -38 -4 -5 -8
-12 -9 -15 0 -4 -14 -37 -31 -73 -25 -54 -51 -121 -58 -149 -1 -3 -5 -12 -8
-20 -12 -29 -41 -135 -39 -142 1 -5 -5 -8 -13 -8 -18 0 -29 21 -45 90 -7 30
-17 62 -21 70 -4 8 -19 44 -32 80 -28 72 -78 176 -110 230 -46 77 -113 176
-129 191 -10 9 -18 21 -18 27 0 20 -271 286 -350 345 -132 97 -263 172 -410
233 -24 11 -46 18 -47 16 -2 -1 -16 4 -33 13 -16 8 -39 17 -52 19 -13 3 -23 5
-23 6 0 1 -7 3 -15 5 -8 1 -35 8 -60 15 -49 13 -58 15 -140 30 -92 16 -130 20
-240 26 -58 3 -110 7 -117 9 -6 2 -13 2 -15 0z"/>
</g>
</svg>
