<svg width="190" height="7" viewBox="0 0 190 7" fill="none" xmlns="http://www.w3.org/2000/svg">
<mask id="mask0_225_898" style="mask-type:alpha" maskUnits="userSpaceOnUse" x="0" y="0" width="190" height="7">
<rect x="0.454102" y="0.364868" width="189.516" height="5.907" fill="#C4C4C4"/>
</mask>
<g mask="url(#mask0_225_898)">
<path d="M28.9201 -0.884474L29.3832 -0.962335L28.4819 -1.07397L28.914 -1.15568C29.3472 -1.15493 29.9086 -1.03249 30.214 -1.09755C30.2514 -1.16054 29.7796 -1.18076 29.6592 -1.23094C29.5527 -1.28238 29.4657 -1.33349 29.3994 -1.38364C29.6354 -1.3831 29.8948 -1.37097 30.1622 -1.34796C30.522 -1.31038 30.8748 -1.29211 31.1819 -1.29517C31.8097 -1.28502 32.4163 -1.29515 33.0989 -1.29291L32.8718 -1.44451L33.7515 -1.40904C33.8447 -1.3975 33.9559 -1.41607 34.0475 -1.40178C34.8099 -1.2809 35.1325 -1.34677 35.4985 -1.40139C35.5736 -1.41552 35.664 -1.42608 35.7673 -1.43277C36.7844 -1.40381 37.7015 -1.23437 38.6175 -1.14739C38.7898 -1.12518 38.9552 -1.09667 39.1018 -1.06388C39.4204 -1.00015 39.7747 -0.94811 40.1325 -0.912532C40.4902 -0.876955 40.8399 -0.858975 41.1496 -0.86023C41.8344 -0.861638 42.6081 -0.81948 43.3958 -0.737839C43.63 -0.710947 43.8644 -0.693209 44.084 -0.68575C44.3036 -0.678291 44.5036 -0.681275 44.6712 -0.694519L45.2038 -0.607982C45.4346 -0.643095 45.7273 -0.662362 46.0642 -0.664609C46.401 -0.666856 46.7749 -0.652039 47.1632 -0.621056C47.577 -0.587445 47.9973 -0.564788 48.4266 -0.529252C49.3134 -0.461316 50.1765 -0.419769 50.9891 -0.4059C52.1991 -0.364801 53.3814 -0.333024 54.6021 -0.281785C55.3657 -0.257052 56.1098 -0.243448 56.8298 -0.241046C57.6923 -0.231372 58.6253 -0.184539 59.5837 -0.102808V-0.102808C59.5383 -0.0261256 59.118 -0.0487799 58.836 -0.0513749C57.926 -0.0641202 56.9948 -0.0971472 56.0587 -0.121958C55.637 -0.131642 55.2269 -0.135311 54.8307 -0.132935C54.1685 -0.136115 53.4704 -0.156547 52.7484 -0.193883C51.6078 -0.234966 50.5036 -0.254714 49.4472 -0.252926C49.3644 -0.249889 49.2885 -0.244507 49.2208 -0.236869C49.2067 -0.230255 49.2039 -0.221913 49.2127 -0.212646C49.2215 -0.203379 49.2416 -0.193493 49.2711 -0.18394C49.3006 -0.174387 49.3385 -0.165486 49.3811 -0.158085C49.4238 -0.150684 49.4698 -0.145032 49.5147 -0.141673C49.9343 -0.0897052 50.385 -0.0338905 50.7806 -0.0260384C50.7959 -0.0254518 50.8122 -0.0241119 50.8284 -0.0221147C50.8445 -0.0201174 50.86 -0.0175131 50.8739 -0.0144905C51.7597 0.0952186 52.488 0.0766531 53.178 0.0945023C54.3236 0.142743 55.428 0.165276 56.4744 0.161762C56.6325 0.162001 56.8033 0.168272 56.9805 0.180348C58.0764 0.229302 59.1012 0.234777 60.0068 0.196526C60.3795 0.186836 60.726 0.165081 61.1266 0.164717C61.3733 0.16322 61.5881 0.149337 61.758 0.1239C61.9278 0.098463 62.0493 0.0619973 62.1151 0.0166965C62.2841 0.040547 62.4557 0.0618027 62.6279 0.0802097C62.7308 0.0907346 62.8294 0.0935302 62.9039 0.0880227C62.9784 0.0825151 63.0231 0.0691164 63.0292 0.0505365C63.06 -0.00149801 62.8253 -0.0276294 62.6217 -0.0499121C62.7445 -0.0610717 62.8829 -0.0676366 63.0336 -0.069449C63.8822 -0.0813389 64.7924 -0.0673055 65.7445 -0.0276578C66.4837 0.0197995 67.0738 -0.0188277 67.8515 0.0480971C67.9448 0.0596454 68.0215 0.0426953 68.1073 0.0386257C68.3311 0.0171938 68.6099 0.0123767 68.9195 0.0245955C69.229 0.0368142 69.5601 0.0657002 69.884 0.108748C70.2873 -0.00886071 71.1585 0.125497 71.8019 0.137572C72 0.197382 71.7727 0.186867 71.763 0.203299C71.7532 0.219731 71.763 0.203296 71.6853 0.193672C71.0429 0.278374 70.1628 0.296843 69.1685 0.246485C68.9846 0.246694 68.8094 0.250552 68.6445 0.258024C68.3948 0.268598 68.1133 0.267542 67.8123 0.254902C67.4834 0.245619 67.1813 0.250028 66.9205 0.267916C66.7705 0.267625 66.6436 0.276586 66.5516 0.293976C66.4597 0.311365 66.4057 0.336618 66.3945 0.367389C66.4947 0.39111 66.6058 0.412815 66.7234 0.431642C67.3377 0.505981 67.9502 0.536752 68.4405 0.5179C69.2938 0.485419 70.3092 0.517116 71.2166 0.506027C71.8299 0.501535 72.4827 0.51433 73.1623 0.544174C73.1623 0.544174 73.1445 0.574299 73.1429 0.577038C73.2232 0.590081 73.3077 0.600546 73.3915 0.607834C73.3915 0.607834 73.3915 0.607835 73.3996 0.594141C73.3624 0.580991 73.3119 0.568621 73.2539 0.558462L73.0519 0.533439C73.1892 0.526928 73.3175 0.507541 73.4606 0.519386C73.7621 0.541393 74.0503 0.550683 74.3078 0.546706C74.5653 0.542728 74.7868 0.525562 74.9589 0.496238C75.2641 0.458657 75.6436 0.441566 76.0729 0.44607C76.402 0.441967 76.7191 0.433149 77.0227 0.419659C77.0227 0.419659 77.0422 0.386798 77.186 0.369332C77.0498 0.34779 76.9078 0.330199 76.7664 0.317367C76.1516 0.285307 75.5351 0.255986 74.9308 0.234067C74.7083 0.231699 74.4991 0.235372 74.3072 0.245013C73.7755 0.256295 73.1783 0.240283 72.5502 0.197909C72.5502 0.197909 72.4259 0.182512 72.3637 0.174813C72.54 0.102574 73.1476 0.174894 73.3935 0.125972C73.5431 0.126862 73.8064 0.133014 73.7973 0.120135C73.7768 0.102948 73.7744 0.0869818 73.7902 0.0733814C73.8059 0.0597809 73.8396 0.0488824 73.8886 0.0414686C73.9376 0.0340548 74.0009 0.0303071 74.0738 0.0304976C74.1467 0.0306881 74.2275 0.0348129 74.3104 0.0425713C75.0021 0.0845424 75.6536 0.0962141 76.225 0.0768715C76.4417 0.0772449 76.6845 0.0896846 76.8995 0.0927967C77.0312 0.0965452 77.1513 0.0944603 77.2535 0.0866575C77.773 0.029191 78.472 0.0249944 79.2456 0.0746975C79.6195 0.0925671 79.9688 0.0949567 80.2756 0.0817443C80.4939 0.0793791 80.5864 0.120236 80.7418 0.139484L81.4017 0.180057L80.5542 0.230896C80.7354 0.347404 80.8794 0.38582 81.1754 0.393079C81.6072 0.40404 82.0276 0.408992 82.4344 0.407904C82.7352 0.406946 82.9836 0.381855 83.3909 0.426421C83.4628 0.43369 83.5321 0.436042 83.5871 0.433084C84.0641 0.39352 84.6384 0.38444 85.271 0.406464C85.5985 0.332376 86.1563 0.404409 86.6724 0.462447C86.8389 0.40664 86.5372 0.381022 86.3572 0.346971C86.7888 0.350456 87.2237 0.348466 87.6693 0.356615C87.8033 0.353648 87.9565 0.358723 88.1168 0.37144C88.2771 0.384156 88.4402 0.404166 88.5933 0.429905C88.6679 0.446536 88.7579 0.459053 88.8445 0.464857C88.9312 0.47066 89.0078 0.469307 89.0586 0.461076C89.2899 0.436801 89.6603 0.459159 89.8514 0.418156C89.9193 0.408726 90.0164 0.407409 90.1254 0.414436C90.2343 0.421464 90.3479 0.43638 90.4459 0.456511V0.456511C90.3386 0.462792 90.2431 0.472683 90.1615 0.485966C89.869 0.529114 89.9765 0.60121 90.348 0.706026C90.9186 0.700262 91.5015 0.701899 92.0303 0.682144C92.3251 0.664411 92.6863 0.669954 93.0733 0.698152C93.4603 0.72635 93.8577 0.776084 94.221 0.841761C94.3525 0.867017 94.5023 0.884507 94.6408 0.890763C94.7792 0.897019 94.8962 0.89158 94.9683 0.875523C95.0132 0.856954 95.0272 0.833452 95.0089 0.807057L94.6359 0.760865C94.6359 0.760865 94.6505 0.736217 94.6538 0.73074L95.19 0.726599C95.4737 0.726455 95.7696 0.733715 96.0378 0.731647C96.4317 0.717891 96.8812 0.725559 97.3589 0.754173C97.7995 0.783513 98.2325 0.805691 98.6541 0.820511C99.0621 0.835765 99.3578 0.787136 99.746 0.77937C100.04 0.773517 100.363 0.779773 100.703 0.797893C101.29 0.830031 101.829 0.830091 102.271 0.798066C102.785 0.970611 103.036 0.998666 103.514 0.952041L103.738 0.938723L103.8 0.97573L103.972 0.967592C104.293 0.960343 104.614 0.953098 104.949 0.950512C105.415 0.966525 105.918 1.00961 106.41 1.07555C106.503 1.0871 106.63 1.12633 106.712 1.15705C106.794 1.18777 106.972 1.28044 107.103 1.34077C106.96 1.38481 106.802 1.42692 106.689 1.47755C106.677 1.4862 106.678 1.49651 106.692 1.50766C106.705 1.51881 106.731 1.53048 106.766 1.54174C106.802 1.553 106.846 1.56353 106.896 1.57249C106.946 1.58145 107 1.58858 107.054 1.59332C107.158 1.60353 107.261 1.61034 107.359 1.61346C107.839 1.61884 108.299 1.61484 108.734 1.60149C108.893 1.58265 109.11 1.58086 109.352 1.59641C109.593 1.61195 109.845 1.64394 110.067 1.68729C110.636 1.66127 111.298 1.66895 112.006 1.70983C112.754 1.68497 113.659 1.73524 114.358 1.68077C114.342 1.70816 114.414 1.75531 114.515 1.78248C114.674 1.82374 114.854 1.86199 115.048 1.89559L116.527 1.96119C116.583 1.99492 116.652 2.02907 116.734 2.06319C116.79 2.09014 116.888 2.11651 117.007 2.13672C117.126 2.15692 117.256 2.16937 117.37 2.17142C117.665 2.18141 117.911 2.15906 118.262 2.21429C117.722 2.26649 116.993 2.25955 116.206 2.19472C115.466 2.1454 114.754 2.12076 114.097 2.1217C113.88 2.12133 113.595 2.1242 113.527 2.15403C113.377 2.23834 112.985 2.22501 112.527 2.20946C112.167 2.19244 111.839 2.19435 111.568 2.21503C111.298 2.23572 111.094 2.27459 110.972 2.32845C110.941 2.38049 111.015 2.4249 111.33 2.45518L112.643 2.5766C112.836 2.56098 113.02 2.54251 113.193 2.52124C113.484 2.49299 113.844 2.48523 114.244 2.49858C114.644 2.51192 115.074 2.54601 115.499 2.59818C115.717 2.62513 115.934 2.65207 116.092 2.63927C116.231 2.62456 116.358 2.60695 116.474 2.58657C116.497 2.57291 116.506 2.55719 116.501 2.54001C116.585 2.548 116.669 2.55839 116.75 2.57081C117.398 2.71575 117.9 2.71324 118.356 2.67565C118.479 2.66447 118.573 2.64671 118.698 2.63279C118.823 2.61888 118.867 2.60082 118.981 2.60608C119.887 2.65361 120.148 2.49485 120.911 2.50122C120.949 2.49502 120.972 2.48575 120.979 2.47426C120.985 2.46278 120.976 2.44945 120.95 2.4355C120.896 2.4229 120.834 2.41207 120.769 2.404C120.704 2.39592 120.638 2.39087 120.577 2.3893C120.226 2.36893 119.916 2.37518 119.7 2.40698C119.546 2.41997 119.384 2.43033 119.214 2.43798L118.45 2.20807C119.19 2.22914 119.891 2.22901 120.535 2.20766C120.675 2.19567 120.913 2.21632 121.111 2.22025L122.567 2.24174C122.866 2.24352 123.121 2.20748 123.538 2.2915C123.538 2.2915 123.813 2.30504 123.887 2.29357C123.96 2.2821 124.286 2.21075 124.481 2.16427C124.706 2.17752 125.019 2.21328 125.159 2.20129C125.405 2.17185 125.617 2.1341 125.793 2.08872L126.672 2.1535C126.671 2.21104 126.639 2.26518 126.577 2.31508C126.508 2.3632 126.51 2.42098 126.583 2.48367C126.656 2.54635 126.798 2.61218 126.997 2.67578L127.865 3.01258C128.006 3.03513 128.157 3.05031 128.297 3.05606C128.437 3.06181 128.559 3.05785 128.646 3.04471C129.02 3.00571 129.438 2.97522 129.812 2.93622C130.293 2.99588 130.169 3.09226 130.52 3.17679L131.654 3.31729C131.827 3.44749 132.003 3.57222 131.477 3.61581C131.373 3.62343 131.443 3.67332 131.348 3.69382C131.757 3.79153 132.207 3.82078 132.621 3.88096C132.785 3.92424 132.921 3.97006 133.025 4.0162C133.138 4.08566 133.368 4.15663 133.665 4.21376C133.962 4.27089 134.302 4.30961 134.612 4.32155C135.132 4.35812 135.663 4.41306 136.184 4.48389C136.362 4.50852 136.544 4.52647 136.72 4.53652C136.895 4.54657 137.059 4.5485 137.2 4.54216C137.704 4.53101 138.13 4.49266 138.451 4.4296C138.769 4.37609 139.197 4.3503 139.697 4.35456C140.552 4.46042 140.724 4.61994 141.241 4.76043L140.348 4.77618C140.315 4.83096 140.374 4.90002 140.008 4.89875C139.642 4.89749 139.828 4.9499 139.947 5.00282C139.988 5.02944 140.07 5.05683 140.178 5.08034C140.285 5.10386 140.412 5.12205 140.537 5.13184L141.298 5.19958C141.568 5.22537 141.829 5.23637 142.052 5.2314C142.276 5.22643 142.454 5.20567 142.566 5.1714C142.694 5.13886 142.872 5.11685 143.088 5.10672C143.363 5.08018 143.589 5.0407 143.758 4.98978L144.831 5.06396C144.877 5.0128 145.025 4.97692 145.249 4.9624C145.473 4.94788 145.761 4.9556 146.063 4.98426L146.787 5.0298C147.591 5.07948 147.768 5.06312 148.003 4.91886L147.038 4.66119C147.179 4.59332 147.314 4.53366 147.45 4.474C147.209 4.38911 146.888 4.30882 146.52 4.24128C146.176 4.1687 145.822 4.09841 145.46 4.03068C145.068 3.96147 144.653 3.90128 144.165 3.82326C144.08 3.79802 143.957 3.7533 143.799 3.71022C143.641 3.66836 143.476 3.62732 143.304 3.58727C143.337 3.5325 143.366 3.4832 143.304 3.41962C143.604 3.43991 143.914 3.47539 144.206 3.52287C144.499 3.57035 144.763 3.62833 144.977 3.69159C145.013 3.70281 145.057 3.71335 145.107 3.72249C145.156 3.73164 145.209 3.73917 145.263 3.74459C145.79 3.78346 146.042 3.86466 146.3 3.96422C146.474 4.01511 146.698 4.06031 146.941 4.09354C147.407 4.15128 147.864 4.22546 148.31 4.28949C148.446 4.31083 148.588 4.32839 148.729 4.34145C149.195 4.38299 149.664 4.44108 150.112 4.51276C150.258 4.53097 150.399 4.55508 150.522 4.58306C150.644 4.61105 150.746 4.64209 150.818 4.67361C150.707 4.70813 150.647 4.75172 150.642 4.80173C150.622 4.83459 150.949 4.90159 151.104 4.95015C151.259 4.99871 150.955 4.97583 150.852 4.98071C150.43 4.9901 150.351 5.00979 150.604 5.11757C150.689 5.15145 150.745 5.18536 150.769 5.21718C150.794 5.249 150.785 5.27806 150.745 5.30254C150.685 5.40388 150.502 5.48707 150.377 5.58618C150.572 5.65147 150.897 5.72119 150.933 5.80202C150.95 5.81995 150.986 5.83895 151.038 5.85764C151.091 5.87633 151.158 5.89425 151.236 5.91009C151.44 5.9443 151.626 5.98521 151.779 6.02965C151.932 6.07409 152.048 6.12087 152.118 6.16636C152.141 6.18518 152.196 6.20514 152.273 6.22224C152.349 6.23935 152.441 6.25234 152.531 6.2586C152.637 6.26628 152.733 6.26527 152.797 6.25576C152.862 6.24626 152.891 6.22899 152.878 6.20752C152.88 6.1672 152.866 6.12516 152.836 6.08177C152.853 6.05164 152.871 6.02152 152.801 5.97163C153.119 5.98984 153.454 6.02632 153.768 6.07713C154.082 6.12794 154.363 6.19112 154.582 6.25981C154.823 6.33087 155.046 6.40549 155.313 6.48861C155.258 6.58173 155.258 6.58173 155.828 6.74635L158.85 6.82664L159.469 6.93568C160.046 7.03072 160.184 7.02421 160.547 6.97507L160.791 6.92888C161.304 6.9924 161.894 7.06554 162.215 6.94652C162.319 7.0241 162.387 7.05015 162.363 7.06192C162.21 7.1764 161.944 7.27353 161.576 7.34947C161.482 7.36723 161.416 7.39432 161.306 7.41016C160.953 7.49955 160.871 7.63769 161.077 7.79631C161.18 7.8665 161.328 7.93838 161.518 8.00964C161.24 8.10852 160.872 8.19044 160.423 8.25321C160.042 8.30178 159.728 8.36682 159.491 8.44646C159.278 8.52677 158.959 8.58713 158.552 8.62409C158.345 8.63981 158.195 8.67082 158.115 8.71402C158.091 8.83099 158.146 8.95623 158.277 9.08693C158.302 9.1267 158.373 9.16966 158.483 9.21244C158.594 9.25522 158.742 9.29665 158.915 9.33349C158.915 9.33349 158.999 9.36147 159.039 9.3782C159.072 9.51984 158.947 9.64468 158.672 9.74429C158.627 9.77256 158.534 9.79298 158.405 9.80334C158.275 9.81371 158.113 9.81364 157.936 9.80313C157.563 9.78625 157.214 9.78417 156.852 9.77469C156.463 9.76128 156.12 9.77185 155.859 9.80528C155.599 9.83871 155.43 9.89377 155.372 9.96467C155.368 9.98475 155.357 10.004 155.338 10.0222C155.327 10.0316 155.321 10.0417 155.32 10.0523L156.15 10.2844L155.211 10.3769C155.156 10.47 155.606 10.5258 155.832 10.5949L155.693 10.6335C155.513 10.6553 155.271 10.6136 155.052 10.5894L154.834 10.5624L154.808 10.6062C154.673 10.6659 154.179 10.5988 153.986 10.6426C153.793 10.6863 153.931 10.7357 154.219 10.7832C154.42 10.8185 154.636 10.8467 154.85 10.8656C155.064 10.8845 155.271 10.8936 155.456 10.8923C155.566 10.8876 155.658 10.8769 155.725 10.8609C156.114 10.7927 156.545 10.734 157.013 10.6853C157.372 10.6416 157.821 10.6231 158.33 10.6309C158.479 10.6276 158.659 10.6379 158.838 10.6601C159.017 10.6823 159.184 10.7149 159.309 10.7521V10.7521L159.572 10.7583C159.572 10.7583 159.716 10.7967 159.696 10.803C159.596 10.9168 159.712 11.056 160.028 11.1998V11.1998L159.753 11.2128C159.361 11.1995 159.61 11.2862 159.551 11.3289C159.272 11.3208 158.91 11.2848 158.778 11.3389L158.58 11.335L158.657 11.3446L158.751 11.3269L159.12 11.4079C158.946 11.4215 158.819 11.4381 158.664 11.4455C158.579 11.4518 158.511 11.4631 158.465 11.4786C158.418 11.494 158.394 11.5134 158.394 11.5355C158.395 11.5694 158.349 11.598 158.261 11.6185C158.173 11.639 158.045 11.6507 157.891 11.6525C157.707 11.6532 157.602 11.6901 157.494 11.7032L157.963 11.9259C157.963 11.9259 157.73 11.897 157.856 11.9363L157.873 11.9089L158.157 11.9646C158.361 12.0135 158.504 12.0253 158.625 11.9903C158.746 11.9553 158.718 12.0019 158.776 11.9885C158.755 12.0241 158.624 12.0489 158.511 12.0702C158.381 12.087 158.234 12.0993 158.072 12.107C158.363 12.2636 158.377 12.2682 157.952 12.3097C157.527 12.3511 157.674 12.4134 157.318 12.4223C156.963 12.4311 157.367 12.5371 157.605 12.5577C157.781 12.5713 157.961 12.5925 158.132 12.6197C158.303 12.647 158.461 12.6797 158.596 12.7157L158.524 12.8362C158.42 12.8262 158.315 12.8132 158.213 12.7977C157.869 12.7315 157.556 12.6692 157.249 12.7077L157.395 12.7992L156.326 12.7461C156.353 12.8148 156.516 12.8929 156.78 12.9641V12.9641C156.74 13.0033 156.716 13.0444 156.707 13.0874C156.689 13.1175 156.584 13.0986 156.515 13.1018C156.27 13.1068 156.069 13.1273 155.93 13.1613C155.79 13.1953 155.717 13.2418 155.716 13.2968C155.688 13.3433 156.065 13.4399 156.3 13.4367C156.888 13.446 157.523 13.4818 158.172 13.5422C158.568 13.5501 158.624 13.4277 159.275 13.5113C159.288 13.5678 159.205 13.6135 159.038 13.6416C158.87 13.6697 158.629 13.6786 158.349 13.667C158.508 13.7925 159.389 13.8252 159.428 13.9565C159.209 13.9472 158.974 13.9254 158.747 13.8932C158.521 13.861 158.31 13.8195 158.136 13.7729C158.098 13.7614 158.051 13.7508 157.999 13.7421C157.946 13.7334 157.89 13.7268 157.836 13.723C157.782 13.7192 157.731 13.7183 157.688 13.7204C157.645 13.7224 157.612 13.7274 157.591 13.7348C157.713 13.7823 157.848 13.8371 158.001 13.8884C158.154 13.9397 158.191 13.9619 158.301 13.9727C159.125 14.0747 159.516 14.2584 160.229 14.379C160.415 14.4021 160.438 14.4755 160.277 14.4672C160.123 14.4589 159.983 14.46 159.874 14.4703C159.765 14.4807 159.69 14.4999 159.658 14.5258C159.538 14.5561 159.39 14.5801 159.215 14.5974C159.946 14.7859 160.817 14.9525 161.747 15.0815C161.924 15.107 162.107 15.1226 162.272 15.1259C162.791 15.1261 163.342 15.141 163.913 15.1704C164.116 15.1785 164.303 15.1777 164.465 15.1682C164.995 15.1457 165.417 15.195 165.802 15.3338L166.438 15.5538C166.417 15.5894 166.31 15.629 166.228 15.6835L166.726 15.801L170.522 15.5304L171.285 15.7924L172.378 15.7778C172.461 15.7854 172.546 15.7958 172.626 15.8086C172.847 15.886 173.02 15.9603 173.26 16.0341C173.5 16.1079 173.928 16.1169 174.227 16.2038C174.526 16.2908 174.825 16.2926 175.195 16.3443C175.229 16.4116 175.193 16.4722 175.089 16.5223C175.055 16.5798 174.867 16.6153 174.835 16.6701C174.838 16.7254 174.768 16.7724 174.632 16.8068C174.495 16.8412 174.295 16.8619 174.051 16.867C173.367 16.9848 172.542 17.0688 171.601 17.1162C171.518 17.1197 171.45 17.1276 171.4 17.1396C171.35 17.1516 171.319 17.1674 171.31 17.1859C171.311 17.2397 171.248 17.2861 171.126 17.3218C171.004 17.3576 170.825 17.3817 170.603 17.3924C170.544 17.3946 170.5 17.4013 170.475 17.4118C170.391 17.4186 170.33 17.4315 170.297 17.4494C170.265 17.4673 170.262 17.4895 170.289 17.5139C170.317 17.5383 170.374 17.564 170.454 17.5886C170.534 17.6132 170.636 17.6359 170.748 17.6544C170.912 17.6842 171.079 17.7127 171.248 17.7398C171.238 17.7562 171.07 17.7589 171.095 17.7737C171.161 17.821 171.177 17.8652 171.14 17.903C171.103 17.9408 171.015 17.9711 170.882 17.9914L171.79 18.3742C172.34 18.4273 172.881 18.5172 173.308 18.627C173.309 18.6449 173.284 18.66 173.237 18.6707C173.189 18.6813 173.121 18.6872 173.038 18.6876C172.817 18.6955 172.608 18.7107 172.369 18.7194C172.223 18.7259 172.102 18.7401 172.012 18.7613C171.922 18.7824 171.866 18.8101 171.846 18.8427L172.378 18.9851C172.208 19.0198 172.081 19.0365 171.968 19.0578C172.032 19.1026 172.142 19.1488 172.289 19.1931C172.437 19.2373 172.618 19.2783 172.818 19.313C172.872 19.3201 172.927 19.3253 172.979 19.3283C173.032 19.3313 173.081 19.332 173.125 19.3304C173.537 19.2815 174.02 19.3677 174.489 19.4493C174.957 19.5309 175.212 19.5801 175.558 19.6435L176.22 19.652C176.388 19.682 176.537 19.7174 176.657 19.7551C176.776 19.7929 176.863 19.8321 176.909 19.8696C176.873 19.9298 176.559 19.8968 176.372 19.903C175.928 19.9405 175.344 19.9325 174.717 19.8803C174.562 19.8611 174.402 19.8766 174.251 19.8785C173.925 19.886 173.611 19.8982 173.312 19.915C173.115 19.9307 172.931 19.9501 172.76 19.9731C172.715 20.0498 173.431 20.109 173.024 20.1469C173.164 20.1642 173.217 20.1884 173.289 20.1796C173.749 20.2294 174.203 20.2541 174.598 20.2506C175.355 20.2401 176.214 20.275 177.106 20.3526C178.069 20.433 178.992 20.4668 179.8 20.4511C180.108 20.4502 180.452 20.4666 180.806 20.4992C181.224 20.5444 181.639 20.5727 182.024 20.5825C182.152 20.5829 182.294 20.5905 182.439 20.6049C182.584 20.6193 182.728 20.64 182.859 20.6654V20.6654C182.848 20.6845 182.723 20.6984 182.751 20.7078C183.149 20.8512 183.311 21.0006 183.925 21.1472C184.344 21.1991 184.826 21.2588 185.101 21.1899C185.375 21.121 185.277 21.0618 184.731 20.8854C184.849 20.8828 184.992 20.8911 185.134 20.9087C185.276 20.9262 185.408 20.9521 185.508 20.9816L185.98 21.1136L186.405 21.2398C186.368 21.3028 186.339 21.3521 186.308 21.4041C186.259 21.4594 186.313 21.5267 186.461 21.5965C186.55 21.6346 186.628 21.6727 186.694 21.7106C186.96 21.8617 187.037 22.0046 186.916 22.1232C186.685 22.2937 186.363 22.4506 185.954 22.592C185.523 22.7296 185.286 22.9032 184.93 23.0531C184.749 23.1214 184.529 23.1826 184.272 23.2361C183.784 23.3551 183.25 23.4682 182.761 23.5899C182.272 23.7116 181.719 23.799 181.176 23.8993C180.367 24.0183 179.493 24.1211 178.558 24.2071C177.98 24.2824 177.386 24.3558 176.851 24.4424C176.219 24.54 175.476 24.6101 174.642 24.651C173.905 24.6999 173.247 24.7722 172.679 24.8665C172.62 24.8767 172.573 24.8897 172.54 24.905C172.438 25.0012 172.151 25.069 171.725 25.0981C171.751 25.1262 171.784 25.1549 171.824 25.1839C171.883 25.2184 171.896 25.2507 171.859 25.2767C171.823 25.3026 171.74 25.3209 171.621 25.3292C171.28 25.3531 170.996 25.3935 170.783 25.4488C170.705 25.4627 170.656 25.4829 170.641 25.5077C170.627 25.5325 170.646 25.5612 170.699 25.5912C170.745 25.6222 170.748 25.6506 170.708 25.6729C170.668 25.6952 170.587 25.7104 170.474 25.7163C170.185 25.7456 169.876 25.7692 169.548 25.7869C168.851 25.8259 168.04 25.8254 167.164 25.7855C167.071 25.7739 166.977 25.7917 166.868 25.7782C166.248 25.7335 165.673 25.7266 165.212 25.7583C164.67 25.7706 164.105 25.7682 163.534 25.774C162.71 25.7701 161.949 25.7936 161.274 25.8439C160.502 25.7953 160.068 25.8797 159.417 25.8814C158.815 25.89 158.245 25.9108 157.712 25.9436C156.852 25.987 155.996 26.025 155.148 26.0758C154.353 26.1001 153.621 26.1464 152.964 26.214C152.713 26.2445 152.257 26.1969 152.086 26.261C151.915 26.325 151.569 26.3174 151.289 26.3387L150.407 26.3911C150.256 26.4036 150.089 26.4115 149.91 26.4147C149.09 26.419 148.522 26.5045 147.761 26.522L147.683 26.5123C146.332 26.6394 144.786 26.7092 143.09 26.7195C142.099 26.7585 141.016 26.7566 139.965 26.7852C139.714 26.8423 139.122 26.7719 138.808 26.8241C138.493 26.8763 137.98 26.8421 137.574 26.8507C137.169 26.8592 136.772 26.8807 136.339 26.88C135.963 26.8802 135.645 26.9035 135.415 26.9478C134.889 27.0209 134.248 27.0639 133.521 27.0748C132.559 27.0938 131.65 27.137 130.671 27.1275C130.685 27.1808 130.625 27.2261 130.497 27.2588C130.369 27.2916 130.178 27.3105 129.943 27.3137C128.897 27.334 127.948 27.387 126.888 27.4027L126.604 27.4028L123.434 27.4334C122.579 27.4393 121.756 27.4491 120.885 27.4558C120.558 27.4154 120.55 27.485 120.325 27.4717C120.262 27.4374 120.187 27.4223 120.076 27.4409L120.052 27.482L116.433 27.5365C115.016 27.5763 113.526 27.5883 111.975 27.5723C111.607 27.5763 111.263 27.5899 110.95 27.6129C110.659 27.6213 110.356 27.625 110.042 27.624C109.618 27.6136 109.204 27.6084 108.801 27.6083C107.74 27.624 106.628 27.6155 105.467 27.6041C104.306 27.5926 103.427 27.613 102.393 27.6114C101.694 27.61 100.997 27.6031 100.273 27.5869C99.9268 27.5793 99.5007 27.5383 99.1426 27.5233C98.7845 27.5084 98.6676 27.5086 98.6203 27.5321C98.4644 27.5981 98.0727 27.5555 97.7595 27.549C97.1488 27.538 97.0621 27.5155 96.8962 27.3451L97.6456 27.2909C97.8292 27.2734 98.0602 27.2703 98.3163 27.282C98.5724 27.2936 98.8449 27.3196 99.1076 27.3573C99.211 27.3735 99.319 27.3863 99.4255 27.395C99.5321 27.4036 99.635 27.408 99.7282 27.4077C100.484 27.3985 101.23 27.3791 101.956 27.3633L102.063 27.3529L102.069 27.2009C101.973 27.186 101.874 27.1736 101.774 27.1643L98.1294 27.0657C97.293 27.0415 96.4246 26.9868 95.6038 26.9645C94.7829 26.9422 94.3406 26.9286 93.7037 26.9056C93.4349 26.8925 93.1609 26.8752 92.8836 26.854C92.8996 26.8393 92.9089 26.8238 92.9112 26.8074C92.9258 26.7828 92.9452 26.7499 92.8274 26.7236C92.6988 26.6863 92.527 26.6546 92.3463 26.6346C92.1766 26.6214 92.012 26.6139 91.859 26.6124C91.1199 26.5997 90.2755 26.5194 89.5062 26.3886L89.2376 26.4759C88.0823 26.4269 86.9098 26.3787 85.703 26.3321C85.4614 26.3194 85.2078 26.295 84.9613 26.2608C84.6971 26.2281 84.454 26.1598 84.1759 26.1224C83.9011 26.0955 83.6282 26.0745 83.3622 26.0598C83.4343 26.0374 83.5292 26.0194 83.6441 26.0065C83.7571 26.002 83.8394 25.988 83.8792 25.9665C83.9189 25.945 83.914 25.9171 83.8651 25.8869C83.779 25.8351 83.7412 25.7863 83.9284 25.7801C84.1013 25.7683 84.225 25.7427 84.285 25.7064C84.3449 25.6701 84.3386 25.6245 84.2667 25.5751C84.2352 25.5462 84.213 25.5179 84.2002 25.4904V25.4904L84.1224 25.4808C83.8661 25.3785 83.3542 25.3416 82.9868 25.2578C82.8134 25.2336 82.6339 25.2196 82.4765 25.2182C82.0702 25.2002 81.6745 25.1923 81.2542 25.1697C81.0535 25.1592 80.8435 25.1402 80.6367 25.1138C80.3415 25.0772 80.3104 25.0733 80.139 24.9404C80.4052 24.9427 80.6163 24.9229 80.7365 24.8842C80.8567 24.8455 80.8786 24.7904 80.7986 24.7281C80.5789 24.5922 80.347 24.4488 79.3533 24.3522C79.6773 24.3474 79.9892 24.3379 80.2875 24.3238C80.3744 24.3208 80.4393 24.3108 80.4738 24.2952C80.5083 24.2796 80.5106 24.2591 80.4805 24.2365C80.4503 24.2139 80.3891 24.1903 80.3051 24.1688C80.2211 24.1472 80.1183 24.1288 80.0104 24.1161C79.4859 24.0391 78.9387 23.9877 78.4303 23.9674C78.0019 23.9584 77.6153 23.9635 77.115 23.9632L76.5244 23.8901C76.5342 23.8737 76.4475 23.8512 76.4695 23.8421C76.6195 23.7578 76.7851 23.6754 76.9556 23.5849C76.6833 23.5359 76.4474 23.4769 76.275 23.4144C76.1025 23.352 76.0004 23.2887 75.9804 23.2318C75.9657 23.2147 75.9696 23.199 75.9917 23.186C76.0138 23.173 76.0537 23.163 76.1084 23.1566C76.2639 23.1456 76.3839 23.1246 76.4592 23.0951C76.5345 23.0657 76.563 23.0287 76.5426 22.9869L76.0834 22.833C74.7007 22.7232 73.3428 22.6448 72.035 22.5991L70.8544 22.5646C70.712 22.5235 70.7561 22.5054 70.8901 22.5044C71.0242 22.5034 71.4011 22.5148 71.6643 22.5209C71.8917 22.529 72.0936 22.5237 72.2505 22.5055C72.4074 22.4873 72.5139 22.4569 72.5599 22.4172L72.1635 22.2417C72.1829 22.2089 72.2105 22.1623 72.4255 22.1654C72.5724 22.1616 72.6807 22.1451 72.7328 22.1184C72.7848 22.0918 72.7778 22.0567 72.7126 22.0187C72.7028 21.9912 72.7176 21.9662 72.7565 21.9448C73.0745 21.943 73.3908 21.944 73.6793 21.9356C73.8137 21.9328 73.9272 21.9226 74.012 21.9058C74.0969 21.8889 74.1511 21.8657 74.1711 21.8378C74.1815 21.8105 74.1561 21.7794 74.097 21.7471C74.0379 21.7148 73.9468 21.682 73.831 21.6516C73.3788 21.6139 72.9651 21.6134 72.6808 21.6502C72.5794 21.6791 72.4166 21.6949 72.2137 21.6954C72.0109 21.696 71.7775 21.6814 71.5445 21.6536C71.2777 21.6214 71.0114 21.6073 70.7935 21.6137C70.5757 21.6201 70.4206 21.6467 70.3561 21.6886C70.0821 21.6723 69.8393 21.6599 69.5997 21.642C69.3171 21.6194 69.0499 21.6127 68.8271 21.6227C68.4706 21.6298 68.0865 21.6257 67.6834 21.6104C66.5216 21.5724 65.3582 21.537 64.2332 21.5212C63.9357 21.5166 63.6782 21.5289 63.3839 21.5189C63.0895 21.5089 62.8567 21.5359 62.4886 21.4815C62.4185 21.473 62.3479 21.4676 62.2825 21.4656C62.2171 21.4636 62.1586 21.4651 62.1117 21.4701C61.4653 21.5131 60.7074 21.5192 59.8825 21.4879C58.7527 21.4803 57.5812 21.4587 56.4498 21.4538C56.1179 21.458 55.8043 21.4693 55.5123 21.4876C55.29 21.4986 55.0572 21.5061 54.8151 21.51C54.6295 21.5135 54.452 21.5032 54.4834 21.563C54.5147 21.6227 54.2366 21.5853 54.0763 21.5743C53.5257 21.5453 52.9629 21.5061 52.3943 21.4571C51.834 21.4038 51.285 21.3728 50.7802 21.366C50.4156 21.362 50.0396 21.3771 49.5708 21.2956C49.5887 21.2654 49.6065 21.2353 49.7086 21.2038C49.3263 21.1173 48.8901 21.0428 48.4361 20.9866C47.9821 20.9304 47.5234 20.894 47.0978 20.8805L46.511 20.7167C46.3665 20.6974 46.219 20.6834 46.0774 20.6755C45.9359 20.6676 45.8032 20.6659 45.6875 20.6706C45.5982 20.6729 45.4892 20.6668 45.3808 20.6534C45.2723 20.64 45.1715 20.6201 45.097 20.5974C44.9856 20.5686 44.8495 20.5437 44.7057 20.5259C44.562 20.5081 44.417 20.4981 44.2889 20.4973C43.8857 20.4795 43.4553 20.4384 43.0417 20.3781C42.9344 20.3428 42.8672 20.3063 42.8483 20.2732C42.8294 20.24 42.8598 20.2116 42.9355 20.1915C43.0577 20.156 43.1263 20.1108 43.1371 20.0586C43.148 20.0064 43.1009 19.9483 42.9988 19.8878C42.9465 19.8506 42.929 19.8155 42.9474 19.7844C42.9658 19.7533 43.0197 19.727 43.1059 19.707C43.4276 19.6146 43.3415 19.5628 42.8152 19.4094C42.7297 19.3838 42.6267 19.3599 42.5126 19.3392C42.3985 19.3185 42.2759 19.3014 42.1525 19.2891C41.8631 19.2641 41.5776 19.2455 41.3013 19.2336C41.1459 19.2144 40.9865 19.2299 40.8075 19.2225C39.9122 19.1851 39.7811 19.1247 39.4912 18.9948L39.2799 18.901C38.888 18.825 38.4593 18.7619 38.0249 18.7162C37.5904 18.6706 37.161 18.6434 36.7675 18.6368C36.611 18.6363 36.4312 18.6234 36.2556 18.5999C35.6838 18.5281 35.1049 18.4785 34.557 18.4542C34.2156 18.4405 33.8476 18.4052 33.4971 18.3524C33.1467 18.2996 32.8288 18.2316 32.5815 18.1566C32.3594 18.089 32.0688 18.0284 31.7502 17.9831C31.3772 17.9369 31.3427 17.8827 31.551 17.8408C31.7592 17.799 32.1081 17.7452 32.4177 17.7013C32.5254 17.6863 32.5922 17.662 32.6105 17.6311C32.6289 17.6001 32.5981 17.5637 32.5216 17.526C32.4725 17.4614 32.4639 17.4 32.4962 17.3435C32.5135 17.32 32.5016 17.2931 32.4613 17.2645C32.421 17.236 32.3533 17.2064 32.2627 17.1779C32.172 17.1495 32.0607 17.1227 31.936 17.0993C31.8114 17.076 31.6764 17.0568 31.5401 17.0428C30.9651 16.9716 30.4057 16.9023 29.8193 16.8503C29.5736 16.8258 29.3281 16.7954 29.0889 16.7598C28.5993 16.672 28.0755 16.5991 27.5479 16.5454C27.2975 16.5215 27.0527 16.4795 26.8664 16.4287C26.279 16.2918 25.7378 16.1479 25.2525 15.9995C25.1355 15.9535 24.9824 15.9086 24.8029 15.8677C24.6234 15.8267 24.4212 15.7906 24.2092 15.7615C24.0382 15.7404 23.8991 15.6937 23.7673 15.6627C23.6716 15.5909 23.6613 15.5244 23.7376 15.4696C23.8139 15.4148 23.9741 15.3734 24.2033 15.3493C24.4206 15.3203 24.624 15.2867 24.8119 15.2512C25.0383 15.2225 25.3076 15.2052 25.6095 15.2001C25.9672 15.1846 26.2316 15.1406 26.3684 15.0736C25.3894 14.9523 24.4583 14.7782 23.6002 14.8189L22.9481 14.7088C22.9741 14.6649 22.9968 14.6266 23.0179 14.591C23.173 14.5262 23.2214 14.4445 23.1591 14.3527C23.1077 14.3084 23.1124 14.268 23.1726 14.2357C23.2327 14.2034 23.3462 14.1803 23.5017 14.1688C24.4225 14.0506 25.4873 13.9708 26.3508 13.8367C26.6215 13.8116 26.9385 13.8001 27.2883 13.8029C27.6267 13.7948 27.6125 13.7343 27.2231 13.6596C27.0045 13.6206 26.7817 13.5832 26.5555 13.5475C25.5582 13.5416 25.1519 13.7206 24.0137 13.6707L23.4862 13.4349C23.3436 13.4313 23.2051 13.4298 23.0717 13.4306L21.1634 13.5264C21.0044 13.5312 20.8807 13.5476 20.8062 13.5737C20.7318 13.5999 20.7096 13.6346 20.7422 13.6742C20.7551 13.7225 20.7288 13.7669 20.6643 13.8056C20.6227 13.8328 20.6493 13.8688 20.7383 13.9059C20.9389 13.9896 20.6815 14.0018 20.5189 14.0228C20.4774 14.0248 20.4294 14.0246 20.3779 14.0221C20.3264 14.0197 20.2724 14.015 20.2189 14.0084C20.1654 14.0017 20.1135 13.9933 20.0663 13.9836C20.0191 13.9738 19.9775 13.9629 19.9439 13.9516C19.6575 13.872 19.4069 13.7881 19.1253 13.7003C19.3253 13.6163 19.09 13.4784 19.402 13.4024C19.4369 13.3872 19.4508 13.3687 19.443 13.348C19.4352 13.3273 19.4057 13.3049 19.3565 13.2821C19.2295 13.2232 19.169 13.1658 19.1811 13.1157C19.1932 13.0656 19.2775 13.0245 19.4256 12.9967L19.4434 12.9665C19.053 12.8653 19.1565 12.7752 19.0031 12.668L18.6276 12.598C17.6933 12.4294 17.6917 12.4321 16.8873 12.4383C16.7252 12.3741 16.9312 12.3644 17.0857 12.357L18.3794 12.285C19.2253 12.2369 20.0958 12.2036 21.0407 12.1854C21.9856 12.1672 23.0391 12.1066 24.0157 12.063C24.0651 12.0596 24.1029 12.0529 24.1259 12.0435C24.1489 12.0341 24.1564 12.0222 24.1479 12.0088C24.1091 11.9943 24.0583 11.9804 23.9992 11.968C23.9402 11.9556 23.8744 11.9451 23.8067 11.9371C23.4959 11.8987 23.177 11.8739 22.8458 11.8417L22.2283 11.7858L22.0384 11.7123C21.9148 11.6675 21.8303 11.613 21.6658 11.5809C21.5303 11.5569 21.3832 11.5387 21.2398 11.5282C21.0964 11.5177 20.962 11.5152 20.8506 11.521C20.5416 11.5357 20.2621 11.5569 19.9671 11.5762C19.6721 11.5956 19.5095 11.6166 19.2537 11.6261C18.7339 11.6304 18.2316 11.6417 17.7489 11.6602C17.3423 11.7037 16.9662 11.7553 16.6231 11.8147C16.409 11.8381 16.2088 11.8663 15.8433 11.8357C15.6698 11.808 15.5203 11.7715 15.421 11.7329C15.3218 11.6942 15.2793 11.6558 15.3012 11.6245C15.3208 11.6 15.3763 11.5805 15.4625 11.5681C15.5487 11.5556 15.6627 11.5505 15.7938 11.5532C16.1607 11.5487 16.5 11.5335 16.8049 11.508C17.2292 11.4616 17.7457 11.4417 18.3243 11.4492C18.5205 11.4559 18.652 11.431 18.8236 11.4229C18.9953 11.4147 19.1407 11.3945 19.332 11.4094C19.9265 11.4478 20.2115 11.389 20.5678 11.3508C20.6884 11.3339 20.7631 11.3065 20.7837 11.2717C20.8044 11.2369 20.7701 11.1961 20.6847 11.1536C20.5202 11.0691 20.3191 10.9841 20.0844 10.8999C19.9636 10.8586 19.8088 10.8193 19.6322 10.7852C19.4556 10.7511 19.262 10.7231 19.0666 10.7033C18.9496 10.6516 18.8872 10.6007 18.885 10.5552C18.8828 10.5098 18.9409 10.4712 19.054 10.4431C19.3423 10.3788 19.5979 10.3135 20.2438 10.3494C20.5476 10.3631 20.8334 10.3657 21.0899 10.3572C21.659 10.3455 22.3155 10.3711 22.9975 10.4317C23.1739 10.4473 23.3473 10.4579 23.5126 10.4632C24.6916 10.5005 25.8148 10.5191 26.9414 10.5322C27.5382 10.5385 28.1398 10.5366 28.7628 10.5549C30.2238 10.5948 31.5538 10.5743 32.964 10.5873C33.7025 10.5939 34.3636 10.5671 34.9125 10.5082C35.0194 10.4884 35.1112 10.4654 35.1869 10.4393C34.8231 10.3708 34.4236 10.3166 34.0265 10.2818C33.6294 10.247 33.2481 10.2329 32.9192 10.2407C32.7383 10.2599 32.5045 10.2634 32.2439 10.2508C31.9833 10.2383 31.7062 10.2102 31.4433 10.1696V10.1696L32.2076 10.1467C32.7143 10.136 33.2334 10.1327 33.7263 10.1173C34.5093 10.0908 35.235 10.0484 36.0459 10.0312C36.7006 10.0154 37.2864 9.9751 37.785 9.91148C38.1452 9.86507 38.5566 9.83217 39.0108 9.81343C39.3336 9.80344 39.3336 9.80344 39.54 9.70847C39.3763 9.64704 39.1645 9.63845 38.9651 9.63726C37.7692 9.59861 36.6311 9.59183 35.5741 9.61707C35.0407 9.61931 34.5676 9.64536 34.1773 9.69396C34.0818 9.71446 33.8373 9.70476 33.6411 9.69809C33.0259 9.68796 32.438 9.6909 31.8844 9.70688C31.1189 9.73352 30.2664 9.7272 29.3599 9.68818C29.188 9.64044 29.3859 9.64436 29.3956 9.62793C30.0977 9.5973 30.7859 9.562 31.5019 9.53604C31.6976 9.52678 31.9068 9.5222 32.1272 9.52235C32.9498 9.53845 33.6354 9.49385 34.0877 9.39477C34.1105 9.35643 34.408 9.36095 34.5396 9.33608C34.6043 9.31456 34.6473 9.28922 34.6676 9.26081C34.476 9.19004 34.2593 9.18967 34.0926 9.18959C33.6086 9.19749 33.1431 9.21246 32.6982 9.23443C32.2846 9.25534 31.8268 9.26093 31.3371 9.25106C30.9757 9.24158 30.6668 9.25623 30.3022 9.25223C30.1044 9.24381 29.8997 9.23029 29.6922 9.21195C29.9232 9.16263 30.2373 9.1323 30.6123 9.12307C30.8967 9.09362 31.2522 9.08474 31.2977 9.00806C31.1634 8.95321 31.0137 8.95232 30.8936 8.95801C30.6435 8.9578 30.402 8.96126 30.1702 8.96837C29.6787 8.98396 29.1466 8.98417 28.5851 8.96901C28.2894 8.96334 28.0088 8.96505 27.748 8.9741C27.157 8.98616 26.5906 9.01302 26.0495 9.02537C24.9411 9.03801 23.9301 9.0833 22.865 9.10719C22.628 9.11311 22.4155 9.13383 22.1031 9.09807C21.7906 9.06231 21.7767 9.05765 21.7398 9.03544C21.6524 8.9984 21.6259 8.96248 21.6659 8.93515C21.7278 8.90963 21.8486 8.8954 22.0065 8.89503C22.9586 8.85442 23.8617 8.79738 24.71 8.72425C25.0834 8.7096 25.4105 8.67973 25.68 8.63566C25.8937 8.60531 26.1472 8.58522 26.4326 8.57601C26.8477 8.55407 27.2803 8.53799 27.7289 8.52785C27.9377 8.52239 28.1151 8.50614 28.2509 8.48004C28.3867 8.45395 28.478 8.41853 28.5196 8.37589L27.9696 8.23429C27.8832 8.2277 27.7975 8.22199 27.7129 8.21719L23.1485 8.31919L22.6965 8.322C22.2011 8.31355 22.08 8.29268 21.61 8.12864C22.6825 8.09005 23.5256 7.97757 24.0553 7.80241C23.928 7.78357 23.7975 7.7674 23.6668 7.75429C22.8097 7.71286 21.9995 7.70185 21.2674 7.72168C20.8325 7.72368 20.3853 7.71827 19.9365 7.7156C20.0678 7.63484 20.5706 7.65891 20.8983 7.6407C21.6814 7.61221 22.3739 7.55337 22.9536 7.46605C23.1534 7.43201 23.4035 7.41024 23.6922 7.40174C23.9812 7.39882 24.2227 7.37821 24.3955 7.34171C24.5683 7.30522 24.6672 7.25394 24.6837 7.19235C24.711 7.13659 24.7696 7.08476 24.8589 7.03766C24.701 6.97083 24.4503 6.90683 24.1539 6.85767C23.8575 6.8085 23.5357 6.77757 23.2489 6.77065C22.6367 6.74314 22.0016 6.69809 21.36 6.63665C21.0403 6.60567 20.7269 6.58788 20.4401 6.58445C20.1871 6.58181 19.8996 6.55944 19.6213 6.52073C19.3431 6.48202 19.0894 6.42911 18.899 6.37007C18.642 6.29709 18.4021 6.22328 18.1623 6.14948C17.9225 6.07568 17.6441 5.98242 17.3642 5.89189C17.1173 5.87773 16.8769 5.86863 16.6463 5.86471C16.4669 5.86803 16.2575 5.85816 16.0429 5.83627C15.8283 5.81438 15.6173 5.78137 15.4351 5.74115V5.74115C15.542 5.70148 15.6628 5.66647 15.7902 5.62051C15.6154 5.55982 15.4887 5.49792 15.4177 5.43859C15.3468 5.37926 15.3331 5.32375 15.3775 5.27543C15.4035 5.23161 15.2135 5.15811 15.1478 5.1C15.0633 5.04991 15.0474 5.00316 15.1023 4.96589C15.1571 4.92862 15.2801 4.90256 15.4551 4.89113C15.6722 4.87004 15.8489 4.83827 15.9779 4.79713C16.0206 4.78646 16.0423 4.77183 16.0411 4.7546C16.0399 4.73736 16.0158 4.71807 15.9709 4.69849C15.9261 4.6789 15.8621 4.65965 15.7846 4.64248C15.7071 4.62532 15.6187 4.61079 15.5274 4.60024C15.2479 4.57031 14.9703 4.55091 14.7105 4.54315C14.263 4.52889 13.8346 4.51993 13.4253 4.51627C12.9727 4.51076 12.4691 4.47679 11.9657 4.4178C11.515 4.36198 11.111 4.31194 10.8906 4.20527C10.6703 4.09861 10.3179 4.10201 10.047 4.02436C10.1992 3.95436 10.4697 3.90573 10.8312 3.88337C11.0677 3.87539 11.2652 3.85443 11.4109 3.82186C11.5566 3.78928 11.6473 3.74579 11.6773 3.69419L10.8548 3.47767C10.1979 3.37574 9.83445 3.45419 9.12471 3.41333L9.85601 3.3334C9.8707 3.3255 9.8762 3.31622 9.87224 3.30601C9.80123 3.14435 9.68827 3.10978 8.94071 3.02014L8.52113 2.96817L7.85705 2.9065C7.7507 2.87337 7.67715 2.83882 7.64373 2.80631C7.6103 2.77379 7.61819 2.74446 7.66661 2.72123C7.7639 2.68217 7.79348 2.63225 7.75263 2.57608C7.68822 2.53887 7.68291 2.50457 7.7376 2.47912C7.79229 2.45368 7.90354 2.4387 8.05205 2.43678C8.17057 2.43382 8.17937 2.39082 8.24384 2.36647C8.30791 2.3329 8.41756 2.30715 8.56532 2.29096C8.71309 2.27476 8.89547 2.26851 9.10012 2.27262C9.70349 2.27598 10.2703 2.26338 10.7905 2.23505L10.6973 2.2235C11.2395 2.24838 11.7464 2.25139 12.1933 2.23241C12.6411 2.2085 13.2159 2.22384 13.6916 2.20926C14.0789 2.21261 14.3737 2.17953 14.5136 2.11705C14.649 2.05739 15.1412 2.07131 15.5181 2.08272C15.7414 2.09009 15.9572 2.09322 16.1632 2.09206C16.4397 2.07855 16.7854 2.09128 17.1427 2.12812C17.2499 2.13944 17.3555 2.14543 17.4493 2.14552C18.3576 2.161 19.2642 2.17922 20.1602 2.1873C20.367 2.18265 20.6095 2.19331 20.8593 2.21803C20.9643 2.22876 21.0664 2.23321 21.152 2.23077C22.5678 2.20622 24.1654 2.26886 25.5533 2.23498C25.7215 2.22698 25.9078 2.22532 26.1067 2.23003C26.5539 2.24994 26.9421 2.23713 27.2126 2.19356C27.3586 2.17038 27.5457 2.15761 27.762 2.15606C27.9783 2.15451 28.2191 2.16421 28.469 2.18455C28.885 2.21147 29.2693 2.21439 29.5816 2.193C30.1906 2.17323 30.831 2.16511 31.4977 2.16868C31.702 2.17214 31.8816 2.16446 32.0226 2.14623C32.1636 2.12801 32.2621 2.09973 32.3106 2.06358C32.1469 2.00215 31.9678 1.99467 31.7978 2.00007C31.1389 1.98607 30.4815 1.96933 29.8349 1.96273C29.2561 1.94389 28.7007 1.93813 28.177 1.94554C27.9169 1.95389 27.5924 1.93484 27.2743 1.89253C26.8843 1.83894 26.4828 1.81232 26.1507 1.81804C25.9045 1.81946 25.6446 1.81485 25.3749 1.80426C25.2022 1.7915 25.0252 1.76958 24.862 1.74075C24.7973 1.72823 24.7268 1.7177 24.6551 1.70984C24.5835 1.70198 24.5122 1.69697 24.4458 1.69511C24.3794 1.69324 24.3193 1.69458 24.2695 1.69903C24.2197 1.70349 24.1812 1.71097 24.1565 1.72098C23.9067 1.80469 23.3482 1.76197 22.8699 1.75271C22.1532 1.61103 21.6198 1.69489 20.9499 1.61486C20.8969 1.60956 20.8447 1.60634 20.7965 1.60543C20.7483 1.60451 20.7051 1.60591 20.6695 1.60953C19.3732 1.65769 17.8623 1.61755 16.5013 1.63418C16.3512 1.63662 16.1769 1.62828 15.9984 1.61012C14.8317 1.48994 13.7098 1.45582 12.8523 1.51444C12.748 1.51972 12.6293 1.51994 12.5017 1.5151C11.9154 1.46734 11.3547 1.4483 10.8665 1.45956C10.1013 1.45592 9.36558 1.45887 8.58811 1.44783C8.05218 1.43212 7.58202 1.44891 7.22475 1.49651C7.21339 1.51568 6.9754 1.49502 6.79309 1.49302C6.68824 1.44476 6.59734 1.40117 6.48925 1.35838C6.39263 1.30545 6.24788 1.25189 6.06487 1.20133C5.88186 1.15077 5.66488 1.10439 5.42855 1.06533C5.0245 1.01529 4.98409 0.942669 5.26682 0.915953C5.99556 0.827562 6.91191 0.791385 7.94851 0.810076C8.81504 0.81157 9.69714 0.814992 10.576 0.823888C11.0886 0.83152 11.6289 0.848472 12.1276 0.85144C12.2959 0.857962 12.4687 0.867573 12.6444 0.88017C12.8599 0.898434 13.0692 0.908386 13.2609 0.909491C13.8765 0.894109 14.5636 0.907509 15.2893 0.94905C15.5551 0.958109 15.8103 0.961161 16.0512 0.958164C16.621 0.946888 17.2388 0.955186 17.8881 0.982839C18.2917 0.998432 18.683 1.00659 19.0581 1.00721C19.1905 1.00892 19.2984 0.995818 19.4259 1.00574C20.5488 1.10953 21.3438 1.03456 22.3544 1.07447C22.8456 1.0856 23.3148 1.08563 23.7556 1.07457C24.6157 1.0751 25.4998 1.08648 26.4044 1.10866C27.6005 1.14509 28.7089 1.13245 29.851 1.14749C30.0765 1.15066 30.2942 1.15012 30.5025 1.14588C31.5161 1.11788 32.6169 1.12382 33.7782 1.16355C34.0419 1.16929 34.2788 1.16227 34.4739 1.14294C34.6691 1.12361 34.8183 1.09238 34.9124 1.0512C34.9522 1.02294 34.9264 0.986238 34.84 0.948169C34.6967 0.899551 34.5348 0.851916 34.3571 0.806047L27.8926 0.652132C27.6211 0.644095 27.3563 0.639768 27.0996 0.63917C26.3446 0.637832 25.5664 0.625858 24.7688 0.603308C23.9807 0.582127 23.2278 0.585887 22.4642 0.57951C22.2393 0.577373 22.0085 0.572333 21.7726 0.564403C20.1784 0.50164 18.6238 0.463305 17.1198 0.449673C16.4871 0.447739 15.8036 0.418934 15.1585 0.409598C14.5135 0.400261 13.6314 0.396843 12.8663 0.393204L10.4972 0.393763C10.0313 0.391905 9.57758 0.397448 9.12553 0.400254C8.57695 0.200025 8.38791 0.153093 7.65589 0.0653701C7.40546 0.0330112 7.15073 0.0137004 6.92157 0.00969921C6.1949 0.0255279 5.28312 -0.0403623 4.59403 -0.0316388C4.17822 -0.0359417 3.82539 -0.0136986 3.57165 0.0328146C3.35139 0.0693185 3.09952 0.0982031 2.81993 0.119032C2.05403 -0.0522586 1.98653 -0.163507 2.56266 -0.206799C2.71876 -0.216863 2.93376 -0.21375 3.04648 -0.235066C3.11116 -0.248047 3.19951 -0.255472 3.3045 -0.256755C3.40949 -0.258038 3.52822 -0.253147 3.65136 -0.242461C4.04001 -0.21443 4.40429 -0.207837 4.70765 -0.223346C4.99314 -0.243871 5.34309 -0.243052 5.72376 -0.220964C6.00348 -0.186319 6.24935 -0.235239 6.49126 -0.249372C6.73317 -0.263506 6.9317 -0.288895 7.30954 -0.250918C7.37872 -0.243356 7.44741 -0.238816 7.51034 -0.237648C7.57326 -0.236479 7.62874 -0.238712 7.67253 -0.244175C8.07834 -0.268635 8.5626 -0.266065 9.08598 -0.236676C9.88871 -0.207757 10.6419 -0.206673 11.3193 -0.23346C11.7249 -0.256899 12.0706 -0.298464 12.3431 -0.356535C12.4174 -0.375957 12.5277 -0.387604 12.6634 -0.390358C13.345 -0.378241 14.0851 -0.33264 14.836 -0.256497C15.1189 -0.225988 15.4014 -0.201855 15.6775 -0.184613C16.245 -0.14631 16.7939 -0.124846 17.3078 -0.120858C18.0547 -0.120226 18.8323 -0.105488 19.6338 -0.0767797C20.1284 -0.0607947 20.605 -0.0548948 21.0579 -0.0591444C21.5234 -0.0611477 22.0204 -0.0489541 22.5377 -0.0228477C23.0521 -0.00157384 23.5054 -0.0138315 23.843 -0.058137C23.9542 -0.0820119 24.0437 -0.110363 24.11 -0.14266C23.3568 -0.247757 22.5778 -0.301169 21.9299 -0.292141C21.6838 -0.299102 21.4795 -0.292074 21.2202 -0.33301L21.2121 -0.319317C21.1604 -0.310432 21.0826 -0.308336 20.9933 -0.313428C20.9041 -0.318521 20.8096 -0.330445 20.728 -0.346931V-0.346931C20.7588 -0.398966 20.7881 -0.448261 20.8092 -0.483864C21.3028 -0.477583 21.7821 -0.478092 22.2447 -0.485393C22.6346 -0.495898 23.1638 -0.403886 23.5013 -0.438522C24.1596 -0.395211 24.5787 -0.455012 25.169 -0.437756C25.7593 -0.420501 26.4094 -0.363495 26.9997 -0.34624C27.5148 -0.33677 28.0149 -0.334712 28.4973 -0.340074C28.6638 -0.347601 28.8558 -0.345836 29.0614 -0.334885C29.3505 -0.314283 29.6193 -0.310831 29.8371 -0.324926C30.0549 -0.339022 30.2129 -0.370097 30.293 -0.414586C30.2176 -0.45626 30.116 -0.509995 29.9989 -0.565658C30.2144 -0.611396 30.5416 -0.630655 30.9322 -0.620569L31.484 -0.622779C31.6302 -0.621571 31.742 -0.633936 31.7962 -0.657315C31.8504 -0.680694 31.8429 -0.713296 31.7753 -0.748382C30.729 -0.925007 30.6904 -0.944477 29.9225 -0.83087L28.9029 -0.883662L28.9201 -0.884474ZM42.7114 -0.399291L42.6337 -0.408913L42.7114 -0.399291ZM169.777 18.3925L169.759 18.4226L169.779 18.3897L169.95 18.4109L169.961 18.3917L169.777 18.3925ZM144.958 5.18839C144.716 5.15553 144.472 5.12531 144.227 5.09793C144.163 5.09368 144.103 5.09272 144.052 5.09513C144.002 5.09754 143.961 5.10325 143.935 5.11176C143.916 5.14463 144.053 5.16743 144.177 5.18283C144.334 5.20355 144.494 5.21672 144.641 5.22098C144.788 5.22524 144.917 5.22043 145.013 5.20705L145.154 5.19506L144.958 5.18839ZM20.5071 13.1982C20.6662 13.2038 20.8171 13.2047 20.956 13.2009C21.5722 13.1743 22.1623 13.1357 22.7941 13.1111C23.5912 13.0485 24.5073 13.0231 25.5078 13.0356C25.8986 13.0417 26.2289 13.0215 26.4599 12.9772C26.5982 12.9534 26.7767 12.9395 26.9845 12.9363L29.6295 12.8641C29.793 12.8491 29.9344 12.8281 30.0503 12.8016C29.8172 12.7727 29.6618 12.7534 29.5685 12.7419C29.3751 12.7386 29.2088 12.7475 29.0863 12.7674C28.9548 12.8013 28.7325 12.8147 28.4636 12.8049C28.1921 12.7969 27.9273 12.7926 27.6706 12.792C27.1858 12.7937 26.6978 12.8008 26.2114 12.8053C26.0222 12.8994 25.4636 12.8567 24.9854 12.8474L24.6159 12.8517C23.4081 12.9005 22.2545 12.9676 21.1605 13.0528C20.949 13.0672 20.7669 13.0902 20.6196 13.121C20.5641 13.1451 20.5464 13.1751 20.5677 13.2087L20.49 13.199L20.5071 13.1982ZM74.4399 22.2003C74.7329 22.2067 75.038 22.2199 75.3507 22.2396C75.5917 22.2598 75.8267 22.272 76.0466 22.2758C77.2784 22.2969 78.5621 22.3457 79.8803 22.4214C80.0527 22.4329 80.2184 22.4385 80.3709 22.4381L81.4499 22.4188C81.7899 22.408 81.7964 22.3971 81.5489 22.2518C81.3435 22.2236 81.1358 22.1979 80.9273 22.1748C80.803 22.1594 80.601 22.1344 80.5537 22.1579C80.2654 22.2222 79.7396 22.1805 79.2972 22.1669C78.0169 22.1318 76.6965 22.08 75.4039 22.0375C75.1306 22.0271 74.8658 22.0218 74.6125 22.0218C74.4552 22.0196 74.3118 22.0237 74.1882 22.0339C74.1521 22.0349 74.1219 22.038 74.0996 22.0428C74.0772 22.0477 74.0633 22.0542 74.0586 22.0619C74.054 22.0697 74.0589 22.0786 74.0728 22.0879C74.0868 22.0972 74.1095 22.1068 74.1395 22.1161C74.2453 22.1484 74.3675 22.1794 74.5021 22.208L74.4399 22.2003ZM83.819 1.11147L85.0802 1.09424C85.2315 1.09239 85.3597 1.073 85.5216 1.0813C86.3853 1.10758 87.1849 1.10026 87.8865 1.05965C88.1254 1.04307 88.4049 1.03976 88.7096 1.04989C89.6427 1.0799 90.5229 1.08113 91.3264 1.05356C91.8457 1.04802 92.3317 1.02943 92.7772 0.998067C92.8115 0.990785 92.8329 0.9809 92.8399 0.969084C92.8469 0.957269 92.8394 0.943801 92.8178 0.9296C92.8122 0.920628 92.7969 0.910977 92.7731 0.901311C92.7492 0.891646 92.7173 0.882194 92.6796 0.87361C92.6418 0.865027 92.5992 0.857516 92.5546 0.851591C92.5099 0.845665 92.4643 0.841465 92.4209 0.839287C91.8581 0.796829 91.3239 0.782038 90.8618 0.796114C90.4334 0.812956 89.9721 0.817884 89.4852 0.810821C89.0193 0.808964 88.7031 0.86388 88.1274 0.821977C87.8839 0.808178 87.6691 0.812721 87.5193 0.834844C87.2177 0.871513 86.7969 0.873553 86.3315 0.8406C86.0531 0.823923 85.787 0.816771 85.5434 0.819417C84.9524 0.831473 84.3876 0.855594 83.84 0.878901C83.6674 0.884292 83.4826 0.885037 83.2882 0.881116L80.5462 0.835477C79.8873 0.821478 79.2299 0.804739 78.5833 0.798142C78.0544 0.783816 77.5623 0.788302 77.1242 0.811443C76.657 0.835766 76.1476 0.84564 75.6054 0.84088C74.7635 0.85419 73.9264 0.859281 73.01 0.85749C72.4255 0.858592 71.8271 0.855032 71.2164 0.844068C70.9074 0.829957 70.6452 0.841449 70.48 0.87633C70.3796 0.905048 70.1432 0.881652 69.947 0.874988C68.9004 0.810752 67.9188 0.795532 67.0709 0.830386C66.9627 0.836066 66.8438 0.838122 66.717 0.83652C65.9003 0.835323 65.0542 0.827537 64.2702 0.827451C64.0638 0.830159 63.8696 0.83759 63.6899 0.849649C63.7092 0.869324 63.764 0.890648 63.8431 0.909199C63.9222 0.927751 64.0194 0.942107 64.1146 0.949287C64.8561 1.00425 65.572 1.03329 66.2322 1.03518C67.3313 1.02818 68.4826 1.04392 69.6741 1.08224C70.5986 1.12087 71.4415 1.11273 72.1403 1.05844C72.6865 1.01793 73.397 1.03317 74.1498 1.10155C74.472 1.13421 74.7847 1.14727 75.0451 1.13894C75.2958 1.12802 75.5834 1.13067 75.8912 1.14673C76.5401 1.17727 77.1642 1.19143 77.7512 1.18895C78.325 1.17771 78.8603 1.147 79.4497 1.13768C80.039 1.12836 80.9366 1.1337 81.6633 1.11787C82.3899 1.10204 83.1085 1.09991 83.819 1.11147ZM31.5557 -0.490433C31.6223 -0.405754 31.8579 -0.353048 32.1115 -0.330468C32.9855 -0.230208 33.8496 -0.187544 34.5587 -0.209636C34.9417 -0.24045 35.4523 -0.228589 35.9902 -0.176381C36.6165 -0.122109 37.2019 -0.113109 37.6432 -0.150966C37.7514 -0.157581 37.8342 -0.171564 37.8842 -0.191672C37.894 -0.208104 37.9118 -0.238228 37.9151 -0.243705C37.8687 -0.257596 37.8118 -0.270467 37.7489 -0.281325C37.6859 -0.292183 37.6185 -0.300738 37.5518 -0.306329L34.6568 -0.403263L34.1522 -0.424593C33.2308 -0.480477 32.3527 -0.50274 31.5557 -0.490433V-0.490433ZM37.2503 0.849837C37.7022 0.98811 37.7037 0.985366 37.9352 1.01698C39.052 1.14827 40.168 1.21915 41.1504 1.22117C41.3688 1.22077 41.5541 1.20742 41.6907 1.18225C41.7609 1.17884 41.8057 1.168 41.8151 1.15209C41.8245 1.13619 41.7979 1.11651 41.741 1.09735L41.3817 0.999936C40.7291 0.957763 40.086 0.924254 39.4561 0.89961C38.7227 0.870509 38.0728 0.869386 37.3125 0.857531L37.2503 0.849837ZM74.3858 21.588C74.8068 21.7783 74.8084 21.7756 75.5133 21.8247C76.0045 21.8595 76.4809 21.8799 76.9286 21.8853C77.4755 21.8913 78.0363 21.902 78.5816 21.9107C78.7148 21.9168 78.8276 21.9118 78.8983 21.8966C78.9689 21.8815 78.9923 21.8573 78.9639 21.8287C78.8923 21.7978 78.7804 21.7678 78.6463 21.7437C78.5121 21.7196 78.3637 21.7028 78.2251 21.6961L77.9275 21.6915C77.5661 21.6821 77.1909 21.6679 76.8418 21.6658C76.6153 21.6737 76.3529 21.6676 76.0751 21.648C75.7973 21.6284 75.5117 21.5958 75.2407 21.5528L74.3858 21.588ZM39.4985 -0.241606C39.611 -0.208649 39.7381 -0.177083 39.8766 -0.147749C40.4128 -0.0664425 40.9804 -0.0202638 41.468 -0.0182656C41.6985 -0.0132288 41.9093 -0.0312118 42.1441 -0.00507962C42.5651 0.0298403 42.9731 0.0484415 43.346 0.0497167C43.346 0.0497167 43.4506 0.0420918 43.4849 0.0404639L43.5564 -0.0800366C43.3798 -0.107952 43.1957 -0.130757 43.0124 -0.147403C42.3976 -0.179463 41.7934 -0.20138 41.1908 -0.226038C40.5882 -0.250695 40.3781 -0.262022 39.984 -0.272613C39.8082 -0.266791 39.6456 -0.256405 39.4985 -0.241606ZM26.183 14.739L26.9877 14.9857C27.2481 15.0071 27.4913 15.011 27.6804 14.9967C27.8696 14.9825 27.9942 14.9508 28.0353 14.9067C28.1016 14.886 28.1082 14.8554 28.0538 14.8213C27.9994 14.7871 27.8882 14.7521 27.7435 14.7236C27.6043 14.6897 27.4453 14.6594 27.2764 14.6344C27.1076 14.6095 26.9325 14.5904 26.7619 14.5785L26.183 14.739ZM32.8826 13.511C32.3563 13.4692 31.853 13.4521 31.411 13.461C31.1325 13.4855 30.7552 13.4777 30.3563 13.4392C29.6311 13.3624 28.9319 13.3412 28.4064 13.3799C28.4064 13.3799 28.3869 13.4128 28.2978 13.4223C28.2088 13.4319 28.562 13.455 28.6397 13.4647C29.2096 13.4882 29.7827 13.5063 30.2782 13.5147C30.5858 13.5144 30.9111 13.5221 31.2486 13.5379C31.713 13.5622 32.1534 13.5701 32.5526 13.5612C32.5526 13.5612 32.7071 13.5539 32.881 13.5137L32.8826 13.511ZM89.0881 0.664626C88.8367 0.618177 88.5641 0.580425 88.2908 0.554205C88.0174 0.527986 87.7504 0.51398 87.5097 0.513235C87.3254 0.510811 87.1763 0.523075 87.0859 0.548088C86.9956 0.573101 86.9692 0.609435 87.0108 0.651345C87.1973 0.674442 87.446 0.705237 87.5858 0.722559C88.0706 0.720864 88.4841 0.698592 89.0881 0.664626ZM136.144 4.57893C135.943 4.54154 135.72 4.51295 135.503 4.49643C135.286 4.47991 135.082 4.47613 134.915 4.48551C134.829 4.48958 134.888 4.53206 134.873 4.55671C134.864 4.5623 134.864 4.56925 134.873 4.57683C134.883 4.58442 134.902 4.59236 134.928 4.59982C134.955 4.60729 134.987 4.614 135.023 4.61925C135.058 4.62451 135.095 4.62812 135.13 4.6297C135.349 4.6458 135.555 4.6506 135.731 4.64365C135.907 4.63671 136.047 4.61824 136.138 4.58989L136.144 4.57893ZM139.297 5.11347C139.266 5.0914 139.2 5.06841 139.11 5.04869C139.021 5.02898 138.914 5.01387 138.81 5.00614C138.627 5.0051 138.46 5.01122 138.316 5.02426C138.16 5.03433 138.272 5.09821 138.483 5.13611C138.572 5.15132 138.668 5.16319 138.762 5.17077C138.856 5.17834 138.946 5.18142 139.025 5.17975C139.103 5.17809 139.169 5.17172 139.215 5.16117C139.262 5.15061 139.289 5.13615 139.294 5.11895L139.297 5.11347ZM47.6833 -0.00691701C47.2129 -0.085754 46.8509 -0.0659208 46.4526 -0.0976068C46.0544 -0.129293 45.9562 -0.132627 46.0096 -0.0819232C46.063 -0.0312197 46.336 -0.0415026 46.5069 -0.0203307C46.7379 0.00776293 46.9702 0.0238944 47.178 0.0262637C47.3857 0.028633 47.5607 0.0171447 47.6833 -0.00691701V-0.00691701ZM145.703 13.3324C145.453 13.3147 145.209 13.3022 144.974 13.2951C144.943 13.3025 144.924 13.312 144.917 13.3233C144.91 13.3346 144.916 13.3474 144.935 13.3608C144.935 13.3608 145.095 13.4012 145.188 13.4127C145.531 13.4523 145.548 13.3956 145.703 13.3324V13.3324ZM180.917 20.6776C181.086 20.7308 181.164 20.767 181.299 20.7926C181.361 20.8014 181.425 20.8079 181.487 20.8114C181.548 20.8149 181.605 20.8155 181.654 20.813C181.713 20.7977 181.727 20.7742 181.693 20.7473C181.693 20.7473 181.521 20.6995 181.456 20.6973C181.269 20.686 181.088 20.6794 180.917 20.6776V20.6776ZM39.6766 -0.457664C39.3192 -0.501932 38.9773 -0.54428 38.7298 -0.492619C39.2974 -0.437022 39.2974 -0.437018 39.6766 -0.457664ZM45.4657 0.0476745C45.1048 -0.0470007 44.893 -0.0555923 44.7198 -0.0447142C44.6829 -0.0419743 44.6586 -0.0358676 44.6504 -0.0273214C44.6421 -0.0187752 44.6505 -0.0082535 44.6742 0.00265306C44.6979 0.0135596 44.7356 0.0242558 44.7817 0.0331251C44.8277 0.0419944 44.8796 0.0485544 44.9295 0.0518103C45.1177 0.0545356 45.2972 0.0531518 45.4657 0.0476745V0.0476745ZM64.0414 0.0877087C64.0495 0.0740154 64.0593 0.0575838 63.966 0.0460354C63.9416 0.0401729 63.913 0.0351316 63.8829 0.0314152C63.8529 0.0276987 63.8226 0.0254408 63.7951 0.0248663C63.7951 0.0248663 63.7854 0.0412989 63.7789 0.0522535L64.0414 0.0877087ZM76.9408 22.8216L76.7332 22.8342L76.8265 22.8457L77.0726 22.8527L76.9408 22.8216ZM150.033 4.8998C149.955 4.89017 149.878 4.88055 149.866 4.89972C149.85 4.90269 149.84 4.90698 149.837 4.91222C149.833 4.91746 149.837 4.9235 149.848 4.92985C149.848 4.92985 149.957 4.94332 150.004 4.94909L150.033 4.8998ZM137.932 5.05312C137.881 5.05202 137.834 5.05331 137.796 5.0569C137.796 5.0569 137.786 5.07333 137.786 5.07333L137.942 5.09258L137.932 5.05312ZM32.4722 8.96833C32.4122 8.95835 32.3486 8.95047 32.2857 8.94523L32.208 8.93561C32.208 8.93561 32.2915 8.96359 32.3381 8.96936C32.3847 8.97514 32.4223 8.96803 32.4722 8.96833Z" fill="#DF6951"/>
</g>
</svg>
