<svg width="77" height="83" viewBox="0 0 77 83" fill="none" xmlns="http://www.w3.org/2000/svg">
<path d="M6.66457 6.38338V7.30347H1.3873V6.38338H6.66457ZM4.51771 4.13605V9.74116H3.53946V4.13605H4.51771Z" fill="#FF7152"/>
<path d="M6.66457 23.6121V24.5322H1.3873V23.6121H6.66457ZM4.51771 21.3648V26.9699H3.53946V21.3648H4.51771Z" fill="#E5E5E5"/>
<path d="M6.66457 40.8409V41.761H1.3873V40.8409H6.66457ZM4.51771 38.5936V44.1987H3.53946V38.5936H4.51771Z" fill="#E5E5E5"/>
<path d="M23.8933 6.38338V7.30347H18.6161V6.38338H23.8933ZM21.7465 4.13605V9.74116H20.7682V4.13605H21.7465Z" fill="#E5E5E5"/>
<path d="M23.8933 23.6121V24.5322H18.6161V23.6121H23.8933ZM21.7465 21.3648V26.9699H20.7682V21.3648H21.7465Z" fill="#E5E5E5"/>
<path d="M23.8933 40.8409V41.761H18.6161V40.8409H23.8933ZM21.7465 38.5936V44.1987H20.7682V38.5936H21.7465Z" fill="#E5E5E5"/>
<path d="M23.8933 58.0696V58.9897H18.6161V58.0696H23.8933ZM21.7465 55.8223V61.4274H20.7682V55.8223H21.7465Z" fill="#E5E5E5"/>
<path d="M41.1221 6.38338V7.30347H35.8448V6.38338H41.1221ZM38.9752 4.13605V9.74116H37.997V4.13605H38.9752Z" fill="#E5E5E5"/>
<path d="M41.1221 23.6121V24.5322H35.8448V23.6121H41.1221ZM38.9752 21.3648V26.9699H37.997V21.3648H38.9752Z" fill="#E5E5E5"/>
<path d="M41.1221 40.8409V41.761H35.8448V40.8409H41.1221ZM38.9752 38.5936V44.1987H37.997V38.5936H38.9752Z" fill="#6246E5"/>
<path d="M41.1221 58.0696V58.9897H35.8448V58.0696H41.1221ZM38.9752 55.8223V61.4274H37.997V55.8223H38.9752Z" fill="#E5E5E5"/>
<path d="M41.1221 75.2984V76.2184H35.8448V75.2984H41.1221ZM38.9752 73.051V78.6561H37.997V73.051H38.9752Z" fill="#E5E5E5"/>
<path d="M58.3508 6.38338V7.30347H53.0736V6.38338H58.3508ZM56.204 4.13605V9.74116H55.2257V4.13605H56.204Z" fill="#E5E5E5"/>
<path d="M58.3508 23.6121V24.5322H53.0736V23.6121H58.3508ZM56.204 21.3648V26.9699H55.2257V21.3648H56.204Z" fill="#E5E5E5"/>
<path d="M58.3508 40.8409V41.761H53.0736V40.8409H58.3508ZM56.204 38.5936V44.1987H55.2257V38.5936H56.204Z" fill="#E5E5E5"/>
<path d="M58.3508 58.0696V58.9897H53.0736V58.0696H58.3508ZM56.204 55.8223V61.4274H55.2257V55.8223H56.204Z" fill="#E5E5E5"/>
<path d="M58.3508 75.2984V76.2184H53.0736V75.2984H58.3508ZM56.204 73.051V78.6561H55.2257V73.051H56.204Z" fill="#E5E5E5"/>
<path d="M75.5796 6.38338V7.30347H70.3023V6.38338H75.5796ZM73.4327 4.13605V9.74116H72.4545V4.13605H73.4327Z" fill="#E5E5E5"/>
<path d="M75.5796 23.6121V24.5322H70.3023V23.6121H75.5796ZM73.4327 21.3648V26.9699H72.4545V21.3648H73.4327Z" fill="#E5E5E5"/>
<path d="M75.5796 40.8409V41.761H70.3023V40.8409H75.5796ZM73.4327 38.5936V44.1987H72.4545V38.5936H73.4327Z" fill="#E5E5E5"/>
<path d="M75.5796 58.0696V58.9897H70.3023V58.0696H75.5796ZM73.4327 55.8223V61.4274H72.4545V55.8223H73.4327Z" fill="#E5E5E5"/>
<path d="M75.5796 75.2984V76.2184H70.3023V75.2984H75.5796ZM73.4327 73.051V78.6561H72.4545V73.051H73.4327Z" fill="#E5E5E5"/>
</svg>
